<?xml version="1.0" encoding="UTF-8" standalone="no"?>
<svg
   viewBox="-11.5 -10.23174 23 20.46348"
   version="1.1"
   id="svg157"
   sodipodi:docname="logo.svg"
   inkscape:version="1.1.1 (3bf5ae0d25, 2021-09-20)"
   xmlns:inkscape="http://www.inkscape.org/namespaces/inkscape"
   xmlns:sodipodi="http://sodipodi.sourceforge.net/DTD/sodipodi-0.dtd"
   xmlns="http://www.w3.org/2000/svg"
   xmlns:svg="http://www.w3.org/2000/svg"
   xmlns:rdf="http://www.w3.org/1999/02/22-rdf-syntax-ns#"
   xmlns:cc="http://creativecommons.org/ns#"
   xmlns:dc="http://purl.org/dc/elements/1.1/">
  <defs
     id="defs161" />
  <sodipodi:namedview
     id="namedview159"
     pagecolor="#ffffff"
     bordercolor="#666666"
     borderopacity="1.0"
     inkscape:pageshadow="2"
     inkscape:pageopacity="0.0"
     inkscape:pagecheckerboard="0"
     showgrid="false"
     inkscape:zoom="22.627417"
     inkscape:cx="6.7396115"
     inkscape:cy="10.584505"
     inkscape:window-width="1920"
     inkscape:window-height="1009"
     inkscape:window-x="-8"
     inkscape:window-y="-8"
     inkscape:window-maximized="1"
     inkscape:current-layer="svg157" />
  <title
     id="title145">Reap-ui Logo</title>
  <g
     stroke="#61dafb"
     stroke-width="1"
     fill="none"
     id="g155"
     transform="matrix(0.92382168,0,0,0.92382168,0.05245059,0.07750825)">
    <ellipse
       rx="11"
       ry="4.1999998"
       id="ellipse149"
       cx="0"
       cy="0" />
    <ellipse
       rx="11"
       ry="4.1999998"
       transform="rotate(60)"
       id="ellipse151"
       cx="0"
       cy="0" />
    <ellipse
       rx="11"
       ry="4.1999998"
       transform="rotate(120)"
       id="ellipse153"
       cx="0"
       cy="0" />
  </g>
  <path
     d="m 2.4832066,1.2575257 c 0,0.9938851 -0.7413475,1.5966538 -1.97161936,1.5966538 H -1.5826888 c -0.124751,0 -0.2258827,-0.1011306 -0.2258827,-0.225883 v -5.1953106 c 0,-0.1247511 0.1011317,-0.2258828 0.2258827,-0.2258828 h 2.08230423 c 1.02584767,0 1.69909197,0.5556723 1.69909197,1.4088318 0,0.59881665 -0.4528962,1.13495148 -1.0299134,1.22880549 v 0.0312889 c 0.7855071,0.08617502 1.3144126,0.63010109 1.3144126,1.38150031 z m -2.19998808,-3.334373 h -1.19413103 v 1.68666907 h 1.00574434 c 0.77749022,0 1.20621647,-0.31307365 1.20621647,-0.87269997 0,-0.5243879 -0.36864089,-0.8139691 -1.01782978,-0.8139691 z M -0.91091251,0.27911349 V 2.1379046 h 1.23806429 c 0.80945442,0 1.23829332,-0.3248202 1.23829332,-0.935268 0,-0.61056235 -0.4408116,-0.92363554 -1.29035811,-0.92363554 h -1.1859995 z"
     style="clip-rule:evenodd;fill:#61dafb;fill-opacity:1;fill-rule:evenodd;stroke-width:0.112941"
     id="path7577" />
  <metadata
     id="metadata7811">
    <rdf:RDF>
      <cc:Work
         rdf:about="">
        <dc:title>Reap-ui Logo</dc:title>
      </cc:Work>
    </rdf:RDF>
  </metadata>
</svg>
