<?xml version="1.0" encoding="UTF-8" standalone="no"?>
<svg
   xmlns:dc="http://purl.org/dc/elements/1.1/"
   xmlns:cc="http://creativecommons.org/ns#"
   xmlns:rdf="http://www.w3.org/1999/02/22-rdf-syntax-ns#"
   xmlns:svg="http://www.w3.org/2000/svg"
   xmlns="http://www.w3.org/2000/svg"
   xmlns:sodipodi="http://sodipodi.sourceforge.net/DTD/sodipodi-0.dtd"
   xmlns:inkscape="http://www.inkscape.org/namespaces/inkscape"
   t="1583652661120"
   class="icon"
   viewBox="0 0 1024 1024"
   version="1.1"
   p-id="1133"
   width="48"
   height="48"
   id="svg10"
   sodipodi:docname="back_top.svg"
   inkscape:version="0.92.4 (f8dce91, 2019-08-02)">
  <metadata
     id="metadata14">
    <rdf:RDF>
      <cc:Work
         rdf:about="">
        <dc:format>image/svg+xml</dc:format>
        <dc:type
           rdf:resource="http://purl.org/dc/dcmitype/StillImage" />
      </cc:Work>
    </rdf:RDF>
  </metadata>
  <sodipodi:namedview
     pagecolor="#ffffff"
     bordercolor="#666666"
     borderopacity="1"
     objecttolerance="10"
     gridtolerance="10"
     guidetolerance="10"
     inkscape:pageopacity="0"
     inkscape:pageshadow="2"
     inkscape:window-width="640"
     inkscape:window-height="480"
     id="namedview12"
     showgrid="false"
     inkscape:zoom="4.9166667"
     inkscape:cx="24"
     inkscape:cy="24"
     inkscape:window-x="58"
     inkscape:window-y="27"
     inkscape:window-maximized="0"
     inkscape:current-layer="svg10" />
  <defs
     id="defs4">
    <style
       type="text/css"
       id="style2" />
  </defs>
  <path
     d="M 741.82476,449.91153 C 745.16026,196.41317 538.35897,83.006012 521.68144,76.335003 v 0 c 0,0 0,0 0,0 0,0 0,0 0,0 v 0 c -13.34202,6.67101 -223.47882,123.413677 -220.14331,373.576527 -43.36157,26.68404 -86.72313,76.71661 -80.05212,160.10423 6.67101,83.38762 90.05863,140.0912 120.07817,136.7557 30.01955,-3.33551 23.34854,-26.68404 23.34854,-26.68404 l 10.00651,-43.36156 c 0,0 46.69707,70.0456 60.03909,70.0456 13.34202,0 76.71661,0 83.38762,0 v 0 c 0,0 0,0 0,0 0,0 0,0 0,0 v 0 c 6.67101,0 70.0456,0 83.38761,0 13.34202,0 60.03909,-70.0456 60.03909,-70.0456 l 10.00651,43.36156 c 0,0 -10.00651,23.34853 23.34854,26.68404 30.01954,3.3355 113.40716,-53.36808 120.07817,-136.7557 13.34202,-83.38762 -30.01954,-133.42019 -73.3811,-160.10423 z m -220.14332,-3.3355 c -6.67101,0 -83.38762,-3.33551 -90.05863,-93.39413 3.33551,-86.72313 83.38762,-93.39414 90.05863,-93.39414 6.67101,0 86.72313,6.67101 90.05863,93.39414 -6.67101,90.05862 -83.38762,93.39413 -90.05863,93.39413 z m -46.69707,436.95113 c 0,10.00651 -6.67101,20.01302 -20.01302,20.01302 v 0 c -10.00652,0 -20.01303,-6.67101 -20.01303,-20.01302 v -93.39414 c 0,-10.00651 6.67101,-20.01303 20.01303,-20.01303 v 0 c 10.00651,0 20.01302,6.67101 20.01302,20.01303 z m 70.04561,46.69706 c 0,10.00652 -10.00652,20.01303 -20.01303,20.01303 v 0 c -10.00652,0 -20.01303,-10.00651 -20.01303,-20.01303 V 793.46853 c 0,-10.00652 10.00651,-20.01303 20.01303,-20.01303 v 0 c 10.00651,0 20.01303,10.00651 20.01303,20.01303 z m 63.37459,-70.0456 c 0,10.00652 -6.67101,20.01303 -20.01303,20.01303 v 0 c -10.00652,0 -20.01303,-6.67101 -20.01303,-20.01303 v -66.71009 c 0,-10.00652 6.67101,-20.01303 20.01303,-20.01303 v 0 c 10.00651,0 20.01303,6.67101 20.01303,20.01303 z m 0,0"
     p-id="1134"
     id="path6"
     inkscape:connector-curvature="0"
     style="fill:#007bff" />
</svg>
