<?xml version="1.0" encoding="UTF-8" standalone="no"?>
<svg
   xmlns:dc="http://purl.org/dc/elements/1.1/"
   xmlns:cc="http://creativecommons.org/ns#"
   xmlns:rdf="http://www.w3.org/1999/02/22-rdf-syntax-ns#"
   xmlns:svg="http://www.w3.org/2000/svg"
   xmlns="http://www.w3.org/2000/svg"
   xmlns:sodipodi="http://sodipodi.sourceforge.net/DTD/sodipodi-0.dtd"
   xmlns:inkscape="http://www.inkscape.org/namespaces/inkscape"
   viewBox="-11.5 -10.23174 247.02122 220.29015"
   version="1.1"
   id="svg192"
   sodipodi:docname="logo.svg"
   width="247.02122"
   height="220.29015"
   inkscape:version="0.92.4 (f8dce91, 2019-08-02)">
  <metadata
     id="metadata198">
    <rdf:RDF>
      <cc:Work
         rdf:about="">
        <dc:format>image/svg+xml</dc:format>
        <dc:type
           rdf:resource="http://purl.org/dc/dcmitype/StillImage" />
        <dc:title>React Logo</dc:title>
      </cc:Work>
    </rdf:RDF>
  </metadata>
  <defs
     id="defs196" />
  <sodipodi:namedview
     pagecolor="#ffffff"
     bordercolor="#666666"
     borderopacity="1"
     objecttolerance="10"
     gridtolerance="10"
     guidetolerance="10"
     inkscape:pageopacity="0"
     inkscape:pageshadow="2"
     inkscape:window-width="1862"
     inkscape:window-height="1016"
     id="namedview194"
     showgrid="false"
     inkscape:zoom="5.7663701"
     inkscape:cx="112.95137"
     inkscape:cy="124.49"
     inkscape:window-x="58"
     inkscape:window-y="27"
     inkscape:window-maximized="1"
     inkscape:current-layer="svg192" />
  <title
     id="title180">React Logo</title>
  <g
     id="g190"
     style="fill:none;stroke:#61dafb;stroke-width:1"
     transform="matrix(10.334217,0,0,10.334217,112.01061,99.913333)">
    <ellipse
       rx="11"
       ry="4.1999998"
       id="ellipse184"
       cx="0"
       cy="0" />
    <ellipse
       rx="11"
       ry="4.1999998"
       transform="rotate(60)"
       id="ellipse186"
       cx="0"
       cy="0" />
    <ellipse
       rx="11"
       ry="4.1999998"
       transform="rotate(120)"
       id="ellipse188"
       cx="0"
       cy="0" />
  </g>
  <path
     d="M 89.228177,68.712778 H 120.7009 c 5.80477,0 10.46673,1.290231 13.96773,3.888355 3.50101,2.598126 5.26057,6.504159 5.26057,11.753447 0,3.181377 -0.79815,5.903231 -2.39446,8.165536 -1.59633,2.262316 -3.88195,4.029758 -6.8569,5.266964 v 0.176742 c 3.99079,0.830694 7.02016,2.668828 9.06995,5.514388 2.04981,2.86324 3.0838,6.43347 3.0838,10.746 0,2.47443 -0.4535,4.78975 -1.36049,6.92836 -0.907,2.15625 -2.32191,4.01208 -4.26288,5.56742 -1.94098,1.55533 -4.40799,2.79254 -7.43736,3.71162 -3.02937,0.91905 -6.62106,1.37859 -10.79326,1.37859 H 89.228177 Z m 11.337433,26.42315 h 18.5027 c 2.721,0 4.98848,-0.74233 6.80246,-2.262317 1.814,-1.519988 2.72099,-3.676263 2.72099,-6.504157 0,-3.181388 -0.81629,-5.42603 -2.44889,-6.71625 -1.6326,-1.290231 -3.99077,-1.944184 -7.07456,-1.944184 h -18.5027 z m 0,27.660352 h 20.0446 c 3.44658,0 6.13128,-0.86605 8.01781,-2.6158 1.90471,-1.7321 2.86613,-4.2065 2.86613,-7.3879 0,-3.12835 -0.94326,-5.51437 -2.86613,-7.21112 -1.9228,-1.69674 -4.57123,-2.50975 -8.01781,-2.50975 h -20.0446 z"
     id="path112"
     style="fill:#61dafb;fill-opacity:1;stroke-width:0.17905612"
     inkscape:connector-curvature="0" />
</svg>
